# Blender v2.70 (sub 0) OBJ File: ''
# www.blender.org
v 0.707107 -0.707107 -1.414213
v -0.292894 -1.707107 -0.000000
v -1.707107 -0.292893 -0.000001
v -0.707106 0.707107 -1.414214
v 1.707107 0.292892 0.000001
v 0.707105 -0.707107 1.414214
v -0.707107 0.707107 1.414213
v 0.292894 1.707107 0.000000
vn -0.500000 -0.500000 -0.707107
vn 0.500000 0.500000 0.707107
vn 0.707106 -0.707107 0.000000
vn -0.500001 -0.500000 0.707106
vn -0.707107 0.707107 -0.000000
vn 0.500001 0.500000 -0.707106
vn 0.707107 -0.707107 0.000000
vn -0.500000 -0.500000 0.707107
s off
f 2//1 3//1 4//1
f 8//2 7//2 6//2
f 1//3 5//3 6//3
f 2//4 6//4 7//4
f 7//5 8//5 4//5
f 1//6 4//6 8//6
f 1//1 2//1 4//1
f 5//2 8//2 6//2
f 2//7 1//7 6//7
f 3//8 2//8 7//8
f 3//5 7//5 4//5
f 5//6 1//6 8//6
