# Blender v2.70 (sub 0) OBJ File: 'spotlight.blend'
# www.blender.org
v 0.153130 -0.065056 -0.016332
v 0.137420 -0.094447 -0.016332
v 0.386422 -0.260824 0.493668
v 0.429806 -0.179659 0.493668
v 0.061127 -0.157059 -0.016332
v 0.029236 -0.166733 -0.016332
v 0.087660 -0.460451 0.493668
v 0.175729 -0.433736 0.493668
v -0.068986 -0.157060 -0.016332
v -0.098377 -0.141350 -0.016332
v -0.264755 -0.390352 0.493668
v -0.183589 -0.433736 0.493668
v -0.160989 -0.065056 -0.016332
v -0.170663 -0.033166 -0.016332
v -0.464381 -0.091590 0.493668
v -0.437666 -0.179660 0.493668
v 0.153130 0.065056 -0.016332
v 0.162804 0.033165 -0.016332
v 0.456521 0.091589 0.493668
v 0.429805 0.179659 0.493668
v -0.160989 0.065056 -0.016332
v -0.145280 0.094447 -0.016332
v -0.394282 0.260824 0.493668
v -0.437666 0.179659 0.493668
v -0.068986 0.157060 -0.016332
v -0.037095 0.166733 -0.016332
v -0.095520 0.460451 0.493668
v -0.183590 0.433736 0.493668
v 0.061126 0.157060 -0.016332
v 0.090517 0.141350 -0.016332
v 0.256894 0.390352 0.493668
v 0.175729 0.433736 0.493668
v 0.162804 -0.033165 -0.016332
v 0.456521 -0.091589 0.493668
v 0.090517 -0.141350 -0.016332
v 0.256895 -0.390351 0.493668
v -0.037095 -0.166733 -0.016332
v -0.095519 -0.460451 0.493668
v -0.145279 -0.094447 -0.016332
v -0.394282 -0.260825 0.493668
v 0.029235 0.166733 -0.016332
v 0.087659 0.460451 0.493668
v 0.137420 0.094447 -0.016332
v 0.386421 0.260825 0.493668
v -0.170663 0.033165 -0.016332
v -0.464382 0.091589 0.493668
v -0.098377 0.141350 -0.016332
v -0.264755 0.390351 0.493668
v 0.166070 0.000000 -0.016332
v 0.465542 -0.000000 0.493668
v 0.116279 -0.120208 -0.016332
v 0.328037 -0.331967 0.493668
v -0.003930 -0.170000 -0.016332
v -0.003930 -0.469472 0.493668
v -0.124138 -0.120208 -0.016332
v -0.335897 -0.331967 0.493668
v -0.124138 0.120208 -0.016332
v -0.335897 0.331967 0.493668
v -0.003930 0.170000 -0.016332
v -0.003930 0.469472 0.493668
v 0.116278 0.120208 -0.016332
v 0.328037 0.331967 0.493668
v -0.173930 -0.000000 -0.016332
v -0.473402 -0.000000 0.493668
v 0.153130 -0.065056 -0.477336
v 0.137420 -0.094447 -0.477336
v 0.061127 -0.157059 -0.477336
v 0.029236 -0.166733 -0.477336
v -0.068986 -0.157060 -0.477336
v -0.098376 -0.141350 -0.477336
v -0.160989 -0.065056 -0.477336
v -0.170663 -0.033166 -0.477336
v -0.068986 0.157060 -0.477336
v -0.037095 0.166733 -0.477336
v 0.061127 0.157060 -0.477336
v 0.090517 0.141350 -0.477336
v 0.153130 0.065056 -0.477336
v 0.162804 0.033165 -0.477336
v -0.160989 0.065056 -0.477336
v -0.145279 0.094447 -0.477336
v 0.162804 -0.033165 -0.477336
v 0.090518 -0.141350 -0.477336
v -0.037095 -0.166733 -0.477336
v -0.145279 -0.094447 -0.477336
v -0.170663 0.033165 -0.477336
v -0.098376 0.141350 -0.477336
v 0.029236 0.166733 -0.477336
v 0.137420 0.094447 -0.477336
v 0.166071 0.000000 -0.477336
v 0.116279 -0.120208 -0.477336
v -0.003929 -0.170000 -0.477336
v -0.124138 -0.120208 -0.477336
v -0.173929 -0.000000 -0.477336
v -0.124138 0.120208 -0.477336
v -0.003930 0.170000 -0.477336
v 0.116279 0.120208 -0.477336
vn 0.000000 0.000000 -1.000000
vn -0.000001 -0.000000 1.000000
vn 0.890439 -0.368816 -0.266610
vn 0.796684 -0.329997 -0.506356
vn 0.716998 -0.479080 -0.506356
vn 0.801355 -0.535447 -0.266610
vn 0.368816 -0.890439 -0.266610
vn 0.329998 -0.796683 -0.506357
vn 0.168232 -0.845755 -0.506357
vn 0.188025 -0.945280 -0.266610
vn -0.368816 -0.890439 -0.266610
vn -0.329996 -0.796684 -0.506357
vn -0.479081 -0.716996 -0.506357
vn -0.535447 -0.801355 -0.266610
vn -0.890439 -0.368816 -0.266610
vn -0.796683 -0.329997 -0.506357
vn -0.845754 -0.168232 -0.506357
vn -0.945280 -0.188025 -0.266610
vn 0.890439 0.368816 -0.266610
vn 0.796684 0.329996 -0.506356
vn 0.845755 0.168232 -0.506356
vn 0.945280 0.188025 -0.266610
vn -0.890439 0.368816 -0.266610
vn -0.796683 0.329997 -0.506358
vn -0.716996 0.479082 -0.506357
vn -0.801355 0.535447 -0.266610
vn -0.368816 0.890439 -0.266610
vn -0.329997 0.796683 -0.506357
vn -0.168231 0.845755 -0.506357
vn -0.188025 0.945280 -0.266610
vn 0.368816 0.890439 -0.266610
vn 0.329998 0.796683 -0.506356
vn 0.479082 0.716997 -0.506356
vn 0.535447 0.801355 -0.266610
vn 0.945280 -0.188025 -0.266610
vn 0.845755 -0.168231 -0.506356
vn 0.535447 -0.801355 -0.266610
vn 0.479082 -0.716996 -0.506357
vn -0.188025 -0.945280 -0.266610
vn -0.168228 -0.845755 -0.506357
vn -0.801355 -0.535447 -0.266610
vn -0.716996 -0.479082 -0.506358
vn 0.188025 0.945280 -0.266610
vn 0.168231 0.845755 -0.506357
vn 0.801355 0.535447 -0.266610
vn 0.716997 0.479081 -0.506356
vn -0.945280 0.188025 -0.266610
vn -0.845754 0.168230 -0.506358
vn -0.535447 0.801355 -0.266610
vn -0.479082 0.716996 -0.506357
vn 0.963775 0.000000 -0.266610
vn 0.862324 0.000002 -0.506356
vn 0.681509 -0.681509 -0.266610
vn 0.609757 -0.609754 -0.506356
vn 0.000000 -0.963775 -0.266610
vn 0.000000 -0.862324 -0.506357
vn -0.681509 -0.681509 -0.266610
vn -0.609754 -0.609756 -0.506357
vn -0.681509 0.681509 -0.266610
vn -0.609755 0.609755 -0.506357
vn 0.000000 0.963775 -0.266610
vn 0.000000 0.862324 -0.506357
vn 0.681509 0.681509 -0.266610
vn 0.609755 0.609756 -0.506356
vn -0.963775 0.000000 -0.266610
vn -0.862323 -0.000001 -0.506358
vn 0.831471 -0.555569 0.000000
vn 0.923879 -0.382684 0.000001
vn 0.195092 -0.980785 0.000000
vn 0.382683 -0.923880 0.000000
vn -0.555571 -0.831469 -0.000000
vn -0.382681 -0.923881 -0.000000
vn -0.980785 -0.195090 -0.000001
vn -0.923879 -0.382684 -0.000001
vn -0.195091 0.980785 -0.000000
vn -0.382682 0.923880 -0.000000
vn 0.555569 0.831471 0.000000
vn 0.382681 0.923880 0.000000
vn 0.980785 0.195090 0.000001
vn 0.923880 0.382681 0.000001
vn -0.831470 0.555570 -0.000001
vn -0.923880 0.382681 -0.000001
vn 0.980785 -0.195089 0.000001
vn 0.555570 -0.831470 0.000000
vn -0.195088 -0.980786 -0.000000
vn -0.831469 -0.555572 -0.000000
vn -0.980786 0.195089 -0.000001
vn -0.555570 0.831470 -0.000000
vn 0.195091 0.980785 0.000000
vn 0.831470 0.555570 0.000001
vn 1.000000 0.000003 0.000001
vn 0.707109 -0.707104 0.000000
vn 0.000000 -1.000000 0.000000
vn -0.707106 -0.707107 -0.000000
vn -1.000000 0.000000 -0.000001
vn -0.707107 0.707107 -0.000000
vn 0.000000 1.000000 -0.000000
vn 0.707107 0.707107 0.000000
s off
f 91//1 83//1 69//1 70//1 92//1 84//1 71//1 72//1 93//1 85//1 79//1 80//1 94//1 86//1 73//1 74//1 95//1 87//1 75//1 76//1 96//1 88//1 77//1 78//1 89//1 81//1 65//1 66//1 90//1 82//1 67//1 68//1
f 23//2 24//2 46//2 64//2 15//2 16//2 40//2 56//2 11//2 12//2 38//2 54//2 7//2 8//2 36//2 52//2 3//2 4//2 34//2 50//2 19//2 20//2 44//2 62//2 31//2 32//2 42//2 60//2 27//2 28//2 48//2 58//2
s 1
f 1//3 4//4 3//5 2//6
f 5//7 8//8 7//9 6//10
f 9//11 12//12 11//13 10//14
f 13//15 16//16 15//17 14//18
f 17//19 20//20 19//21 18//22
f 21//23 24//24 23//25 22//26
f 25//27 28//28 27//29 26//30
f 29//31 32//32 31//33 30//34
f 33//35 34//36 4//4 1//3
f 35//37 36//38 8//8 5//7
f 37//39 38//40 12//12 9//11
f 39//41 40//42 16//16 13//15
f 41//43 42//44 32//32 29//31
f 43//45 44//46 20//20 17//19
f 45//47 46//48 24//24 21//23
f 47//49 48//50 28//28 25//27
f 49//51 50//52 34//36 33//35
f 51//53 52//54 36//38 35//37
f 53//55 54//56 38//40 37//39
f 55//57 56//58 40//42 39//41
f 57//59 58//60 48//50 47//49
f 59//61 60//62 42//44 41//43
f 61//63 62//64 44//46 43//45
f 63//65 64//66 46//48 45//47
f 2//6 3//5 52//54 51//53
f 6//10 7//9 54//56 53//55
f 10//14 11//13 56//58 55//57
f 14//18 15//17 64//66 63//65
f 22//26 23//25 58//60 57//59
f 26//30 27//29 60//62 59//61
f 30//34 31//33 62//64 61//63
f 18//22 19//21 50//52 49//51
f 2//6 66//67 65//68 1//3
f 6//10 68//69 67//70 5//7
f 10//14 70//71 69//72 9//11
f 14//18 72//73 71//74 13//15
f 26//30 74//75 73//76 25//27
f 30//34 76//77 75//78 29//31
f 18//22 78//79 77//80 17//19
f 22//26 80//81 79//82 21//23
f 1//3 65//68 81//83 33//35
f 5//7 67//70 82//84 35//37
f 9//11 69//72 83//85 37//39
f 13//15 71//74 84//86 39//41
f 21//23 79//82 85//87 45//47
f 25//27 73//76 86//88 47//49
f 29//31 75//78 87//89 41//43
f 17//19 77//80 88//90 43//45
f 33//35 81//83 89//91 49//51
f 35//37 82//84 90//92 51//53
f 37//39 83//85 91//93 53//55
f 39//41 84//86 92//94 55//57
f 45//47 85//87 93//95 63//65
f 47//49 86//88 94//96 57//59
f 41//43 87//89 95//97 59//61
f 43//45 88//90 96//98 61//63
f 51//53 90//92 66//67 2//6
f 53//55 91//93 68//69 6//10
f 55//57 92//94 70//71 10//14
f 63//65 93//95 72//73 14//18
f 61//63 96//98 76//77 30//34
f 49//51 89//91 78//79 18//22
f 57//59 94//96 80//81 22//26
f 59//61 95//97 74//75 26//30
